<svg xmlns="http://www.w3.org/2000/svg" xmlns:xlink="http://www.w3.org/1999/xlink" width="70" height="70" viewBox="0 0 70 70">
  <defs>
    <linearGradient id="linear-gradient" x1="0.5" x2="0.5" y2="1" gradientUnits="objectBoundingBox">
      <stop offset="0" stop-color="#fffdc4"/>
      <stop offset="0.167" stop-color="#fffb9a"/>
      <stop offset="0.296" stop-color="#f3d075"/>
      <stop offset="0.458" stop-color="#e9a751"/>
      <stop offset="0.537" stop-color="#e08534"/>
      <stop offset="0.773" stop-color="#f0c363"/>
      <stop offset="1" stop-color="#fffdc4"/>
    </linearGradient>
  </defs>
  <g id="Group_5253" data-name="Group 5253" transform="translate(5 5)">
    <circle id="Ellipse_35" data-name="Ellipse 35" cx="30" cy="30" r="30" fill="url(#linear-gradient)"/>
    <g id="Ellipse_39" data-name="Ellipse 39" transform="translate(-5 -5)" fill="none" stroke="#ffc136" stroke-width="1">
      <circle cx="35" cy="35" r="35" stroke="none"/>
      <circle cx="35" cy="35" r="34.5" fill="none"/>
    </g>
    <g id="Group_4302" data-name="Group 4302" transform="translate(16 16.48)">
      <path id="Path_2355" data-name="Path 2355" d="M24.033,9.549A10.427,10.427,0,0,0,11.667,1.732H11.55A10.5,10.5,0,0,0,4.2,8.849h0a1.658,1.658,0,0,1-.233.7A4.427,4.427,0,0,0,0,13.982v.467a4.366,4.366,0,0,0,4.083,4.433H5.25v-6.65A8.007,8.007,0,0,1,6.417,7.915,8.373,8.373,0,0,1,17.733,4.182h.233a8.716,8.716,0,0,1,3.5,3.617h0a7.519,7.519,0,0,1,1.05,4.2v4.317c-.233,2.917-1.633,3.85-1.633,3.85a5.334,5.334,0,0,1-3.617,1.517H16.45A2.732,2.732,0,0,0,13.883,19.7a2.835,2.835,0,0,0-2.683,3.15,2.885,2.885,0,0,0,2.683,2.683,2.732,2.732,0,0,0,2.567-1.983h.817a7.143,7.143,0,0,0,6.767-5.017A4.437,4.437,0,0,0,28,14.1v-.467A4.346,4.346,0,0,0,24.033,9.2M14,24.015a.993.993,0,1,1,.933-1.05h0A.953.953,0,0,1,14,24.015Z" transform="translate(0 0)"/>
    </g>
  </g>
</svg>
