<?xml version="1.0" encoding="utf-8"?>
<!-- Generator: Adobe Illustrator 25.0.0, SVG Export Plug-In . SVG Version: 6.00 Build 0)  -->
<svg version="1.1" id="Layer_1" xmlns="http://www.w3.org/2000/svg" xmlns:xlink="http://www.w3.org/1999/xlink" x="0px" y="0px"
	 width="12px" height="12px" viewBox="0 0 12 12" style="enable-background:new 0 0 12 12;" xml:space="preserve">
<style type="text/css">
	.st0{fill:#121212;fill-opacity:0;}
	.st1{fill:#121212;}
</style>
<g id="Group_22223" transform="translate(-103 -646)">
	<path id="Rectangle_17394" class="st0" d="M107,646h4c2.2,0,4,1.8,4,4v4c0,2.2-1.8,4-4,4h-4c-2.2,0-4-1.8-4-4v-4
		C103,647.8,104.8,646,107,646z"/>
	<path id="tick_1_" class="st1" d="M113,650l-4.6,4.6c-0.2,0.2-0.6,0.2-0.8,0c0,0,0,0,0,0L105,652c-0.2-0.2-0.3-0.6,0-0.8
		c0.2-0.2,0.6-0.3,0.8,0c0,0,0,0,0,0l2.2,2.2l4.1-4.1c0.2-0.2,0.6-0.2,0.8,0C113.2,649.4,113.2,649.8,113,650L113,650z"/>
</g>
</svg>
