<svg id="Group_4993" data-name="Group 4993" xmlns="http://www.w3.org/2000/svg" xmlns:xlink="http://www.w3.org/1999/xlink" width="20" height="20" viewBox="0 0 20 20">
  <defs>
    <clipPath id="clip-path">
      <rect id="Rectangle_1724" data-name="Rectangle 1724" width="20" height="20" fill="#28a745"/>
    </clipPath>
  </defs>
  <g id="Group_4992" data-name="Group 4992" clip-path="url(#clip-path)">
    <path id="Path_2636" data-name="Path 2636" d="M10,0A10,10,0,1,0,20,10,10,10,0,0,0,10,0m0,18.125A8.125,8.125,0,1,1,18.126,10,8.125,8.125,0,0,1,10,18.125ZM13.93,5.746a.87.87,0,0,0-1.193.3l-.02.034L9.366,12.107,7.5,9.834A.94.94,0,0,0,6.286,9.5a.924.924,0,0,0-.326,1.259l2.6,3.165a1.1,1.1,0,0,0,.648.447v0h.024a1.134,1.134,0,0,0,1.176-.452l3.849-6.913a.942.942,0,0,0-.324-1.259Z" fill="#28a745"/>
  </g>
</svg>
