<svg xmlns="http://www.w3.org/2000/svg" width="39.997" height="40" viewBox="0 0 39.997 40">
  <g id="Group_545" data-name="Group 545" transform="translate(-510.967 -540.005)">
    <g id="Group_503" data-name="Group 503" transform="translate(510.967 540.005)">
      <path id="Path_2097" data-name="Path 2097" d="M530.964,540.005a20,20,0,1,0,20,20A20,20,0,0,0,530.964,540.005Zm5.515,12.235H533.57a1.1,1.1,0,0,0-1.145,1.251V556.2h4.039l-.47,4.592h-3.569v13.073h-5.408V560.789h-2.571v-4.6h2.571V553.22c0-2.128,1.009-5.458,5.455-5.458l4.007.018Z" transform="translate(-510.967 -540.005)" fill="#2f97d8"/>
    </g>
    <path id="Path_2098" data-name="Path 2098" d="M547.21,558.416H544.3a1.1,1.1,0,0,0-1.145,1.251v2.706H547.2l-.47,4.592h-3.569v13.073h-5.408V566.965h-2.571v-4.6h2.571V559.4c0-2.128,1.009-5.458,5.455-5.458l4.007.018Z" transform="translate(-10.731 -6.176)" fill="#fff"/>
  </g>
</svg>
