<svg xmlns="http://www.w3.org/2000/svg" width="40" height="40" viewBox="0 0 40 40">
  <g id="Group_542" data-name="Group 542" transform="translate(-751.034 -540.004)">
    <circle id="Ellipse_19" data-name="Ellipse 19" cx="20" cy="20" r="20" transform="translate(751.034 540.005)" fill="#32e024"/>
    <g id="TYPE_A" data-name="TYPE A" transform="translate(758.594 549.195)">
      <g id="Group_499" data-name="Group 499">
        <path id="Path_2091" data-name="Path 2091" d="M789.448,566.551c0-5.566-5.581-10.095-12.44-10.095s-12.44,4.529-12.44,10.095c0,4.991,4.426,9.17,10.4,9.96.4.087.956.267,1.1.613a2.557,2.557,0,0,1,.04,1.125s-.146.878-.178,1.065c-.054.314-.25,1.229,1.078.67s7.164-4.218,9.774-7.222h0a8.982,8.982,0,0,0,2.666-6.211" transform="translate(-764.568 -556.456)" fill="#fff"/>
        <g id="Group_498" data-name="Group 498" transform="translate(4.081 7.405)">
          <path id="Path_2092" data-name="Path 2092" d="M781.431,569.712h-.873a.242.242,0,0,0-.242.242v5.42a.242.242,0,0,0,.242.242h.873a.242.242,0,0,0,.242-.242v-5.42a.242.242,0,0,0-.242-.242" transform="translate(-775.6 -569.712)" fill="#4de12e"/>
          <path id="Path_2093" data-name="Path 2093" d="M789.18,569.712h-.873a.242.242,0,0,0-.242.242v3.22l-2.484-3.354a.194.194,0,0,0-.018-.025l0,0-.015-.015,0,0-.013-.011-.007,0-.012-.009-.007,0-.013-.007-.008,0-.014-.006-.008,0-.015,0-.008,0-.014,0h-.01l-.013,0h-.893a.242.242,0,0,0-.242.242v5.42a.242.242,0,0,0,.242.242h.872a.243.243,0,0,0,.243-.242v-3.219l2.487,3.359a.233.233,0,0,0,.061.06l0,0,.015.009.007,0,.012.006.012,0,.007,0,.017.006h0a.225.225,0,0,0,.062.008h.873a.242.242,0,0,0,.242-.242v-5.42a.242.242,0,0,0-.242-.242" transform="translate(-777.343 -569.712)" fill="#4de12e"/>
          <path id="Path_2094" data-name="Path 2094" d="M775.6,574.259H773.23v-4.3a.242.242,0,0,0-.242-.242h-.873a.242.242,0,0,0-.242.242v5.42h0a.242.242,0,0,0,.068.168l0,0,0,0a.24.24,0,0,0,.168.068H775.6a.242.242,0,0,0,.242-.242V574.5a.242.242,0,0,0-.242-.242" transform="translate(-771.873 -569.712)" fill="#4de12e"/>
          <path id="Path_2095" data-name="Path 2095" d="M798.744,571.069a.242.242,0,0,0,.242-.242v-.873a.242.242,0,0,0-.242-.242h-3.486a.243.243,0,0,0-.168.068l0,0,0,0a.24.24,0,0,0-.067.167h0v5.419h0a.244.244,0,0,0,.068.168l0,0,0,0a.239.239,0,0,0,.167.068h3.486a.242.242,0,0,0,.242-.242V574.5a.242.242,0,0,0-.242-.242h-2.371v-.916h2.371a.242.242,0,0,0,.242-.242v-.872a.242.242,0,0,0-.242-.242h-2.371v-.916Z" transform="translate(-782.088 -569.712)" fill="#4de12e"/>
        </g>
      </g>
    </g>
  </g>
</svg>
