<svg xmlns="http://www.w3.org/2000/svg" width="39.999" height="40" viewBox="0 0 39.999 40">
  <g id="Group_543" data-name="Group 543" transform="translate(-942.694 -540.005)">
    <ellipse id="Ellipse_20" data-name="Ellipse 20" cx="19.45" cy="19.45" rx="19.45" ry="19.45" transform="translate(943.243 541.105)" fill="#fff"/>
    <g id="Group_501" data-name="Group 501" transform="translate(942.694 540.005)">
      <path id="Path_2096" data-name="Path 2096" d="M942.694,560a20,20,0,0,0,11.971,18.318,17.588,17.588,0,0,1,.348-4.593c.385-1.623,2.574-10.9,2.574-10.9a7.679,7.679,0,0,1-.639-3.164c0-2.964,1.718-5.177,3.857-5.177,1.819,0,2.7,1.366,2.7,3,0,1.829-1.166,4.564-1.766,7.1a3.1,3.1,0,0,0,3.156,3.852c3.789,0,6.341-4.867,6.341-10.633,0-4.383-2.952-7.664-8.322-7.664a9.47,9.47,0,0,0-9.846,9.578,5.772,5.772,0,0,0,1.318,3.922.97.97,0,0,1,.288,1.115c-.1.368-.316,1.254-.408,1.6a.689.689,0,0,1-1,.5c-2.795-1.141-4.1-4.2-4.1-7.641,0-5.681,4.792-12.494,14.294-12.494,7.635,0,12.661,5.526,12.661,11.457,0,7.846-4.362,13.707-10.791,13.707a5.734,5.734,0,0,1-4.886-2.492s-1.161,4.608-1.407,5.5a16.746,16.746,0,0,1-2.013,4.284A20,20,0,1,0,942.694,560Z" transform="translate(-942.694 -540.005)" fill="#d33b3b"/>
    </g>
  </g>
</svg>
