<svg xmlns="http://www.w3.org/2000/svg" width="40" height="40" viewBox="0 0 40 40">
  <g id="Group_544" data-name="Group 544" transform="translate(-637.018 -540.004)">
    <path id="Path_2232" data-name="Path 2232" d="M20,0A20,20,0,1,1,0,20,20,20,0,0,1,20,0Z" transform="translate(637.018 540.005)" fill="#d50303"/>
    <path id="Path_2090" data-name="Path 2090" d="M670.5,561.346H657.113a4.754,4.754,0,0,0-4.754,4.754v6.69a4.753,4.753,0,0,0,4.754,4.754H670.5a4.754,4.754,0,0,0,4.754-4.754V566.1a4.754,4.754,0,0,0-4.754-4.754Zm-3.215,8.424-6.259,2.985a.251.251,0,0,1-.36-.226v-6.158a.251.251,0,0,1,.365-.224l6.259,3.172a.251.251,0,0,1-.005.451Z" transform="translate(-6.786 -9.44)" fill="#fff"/>
  </g>
</svg>
